<svg xmlns="http://www.w3.org/2000/svg" role="img" aria-label="Google logo placeholder" viewBox="0 0 64 64">
  <rect width="64" height="64" rx="14" fill="#fff"/>
  <path fill="#4285F4" d="M50.9 32.6c0-1.4-.1-2.5-.4-3.7H32.6v7.1h10.2c-.2 1.8-1.3 4.4-3.8 6.2v4.6h6.1c3.6-3.3 5.8-8.2 5.8-14.2z"/>
  <path fill="#34A853" d="M32.6 51.1c5.2 0 9.5-1.7 12.7-4.6l-6.1-4.6c-1.6 1.1-3.8 1.9-6.6 1.9-5 0-9.2-3.3-10.7-7.8h-6.3v4.8c3.2 6.2 9.6 10.3 17 10.3z"/>
  <path fill="#FBBC05" d="M21.9 36.1c-.4-1.1-.6-2.4-.6-3.6s.2-2.5.6-3.6v-4.8h-6.3c-1.3 2.6-2 5.4-2 8.4s.7 5.8 2 8.4l6.3-4.8z"/>
  <path fill="#EA4335" d="M32.6 21.2c3.6 0 6 1.5 7.4 2.8l5.4-5.2c-3.3-3-7.6-4.9-12.8-4.9-7.4 0-13.8 4.2-17 10.3l6.3 4.8c1.5-4.5 5.7-7.8 10.7-7.8z"/>
</svg>
